<svg xmlns="http://www.w3.org/2000/svg" viewBox="0 0 512 512">
  <!-- Background -->
  <rect width="512" height="512" fill="#4CAF50" rx="64"/>

  <!-- Grass block style design -->
  <!-- Dirt layer -->
  <rect x="64" y="256" width="384" height="192" fill="#8B5A2B"/>
  <rect x="64" y="256" width="384" height="32" fill="#A0522D"/>

  <!-- Grass layer -->
  <rect x="64" y="64" width="384" height="192" fill="#4CAF50"/>
  <rect x="64" y="224" width="384" height="32" fill="#388E3C"/>

  <!-- Grass blades on top -->
  <rect x="96" y="48" width="32" height="32" fill="#66BB6A"/>
  <rect x="192" y="32" width="32" height="48" fill="#66BB6A"/>
  <rect x="288" y="48" width="32" height="32" fill="#66BB6A"/>
  <rect x="384" y="32" width="32" height="48" fill="#66BB6A"/>

  <!-- Pixel highlights on grass -->
  <rect x="128" y="96" width="32" height="32" fill="#66BB6A"/>
  <rect x="256" y="128" width="32" height="32" fill="#66BB6A"/>
  <rect x="352" y="160" width="32" height="32" fill="#66BB6A"/>
  <rect x="96" y="192" width="32" height="32" fill="#388E3C"/>
  <rect x="224" y="96" width="32" height="32" fill="#388E3C"/>

  <!-- Dirt texture -->
  <rect x="96" y="288" width="32" height="32" fill="#6B4423"/>
  <rect x="192" y="320" width="32" height="32" fill="#A0522D"/>
  <rect x="288" y="288" width="32" height="32" fill="#6B4423"/>
  <rect x="352" y="352" width="32" height="32" fill="#A0522D"/>
  <rect x="128" y="384" width="32" height="32" fill="#6B4423"/>
  <rect x="256" y="384" width="32" height="32" fill="#A0522D"/>
</svg>
